<svg xmlns="http://www.w3.org/2000/svg" xmlns:xlink="http://www.w3.org/1999/xlink" viewBox="0 0 216.46 239.77"><defs><style>.cls-1{fill:#fff;}.cls-2{fill:#879fc4;}.cls-3{fill:#363636;}.cls-4{fill:#383737;}.cls-5{fill:#494949;}.cls-6{fill:#5c5b5b;}.cls-7{fill:#1c1c1c;}.cls-10,.cls-8{fill:#3d3d3b;}.cls-9{fill:#1a2441;}.cls-10{stroke:#c81617;stroke-linecap:round;stroke-linejoin:round;stroke-width:0;}.cls-11{fill:url(#linear-gradient);}.cls-12{fill:url(#linear-gradient-2);}.cls-13{fill:url(#linear-gradient-3);}.cls-14{fill:url(#linear-gradient-4);}.cls-15{fill:url(#linear-gradient-5);}.cls-16{fill:url(#linear-gradient-6);}.cls-17{fill:url(#linear-gradient-7);}.cls-18{fill:url(#linear-gradient-8);}.cls-19{fill:url(#linear-gradient-9);}.cls-20{fill:url(#linear-gradient-10);}.cls-21{fill:url(#linear-gradient-11);}.cls-22{fill:url(#linear-gradient-12);}.cls-23{fill:url(#linear-gradient-13);}.cls-24{fill:url(#linear-gradient-14);}.cls-25{fill:url(#linear-gradient-15);}.cls-26{fill:url(#linear-gradient-16);}.cls-27{fill:url(#linear-gradient-17);}.cls-28{fill:url(#linear-gradient-18);}.cls-29{fill:url(#linear-gradient-19);}.cls-30{fill:url(#linear-gradient-20);}.cls-31{fill:url(#linear-gradient-21);}.cls-32{fill:url(#linear-gradient-22);}.cls-33{fill:url(#linear-gradient-23);}.cls-34{fill:url(#linear-gradient-24);}.cls-35{fill:#1e3661;}</style><linearGradient id="linear-gradient" x1="88.69" y1="63.12" x2="87.96" y2="59.43" gradientTransform="matrix(1, 0.04, -0.04, 1, 19.52, -7.59)" gradientUnits="userSpaceOnUse"><stop offset="0" stop-color="#1e3661"/><stop offset="0.09" stop-color="#3a527c" stop-opacity="0.73"/><stop offset="0.22" stop-color="#566e96" stop-opacity="0.47"/><stop offset="0.35" stop-color="#6c84aa" stop-opacity="0.26"/><stop offset="0.5" stop-color="#7b93b9" stop-opacity="0.11"/><stop offset="0.69" stop-color="#849cc1" stop-opacity="0.03"/><stop offset="1" stop-color="#879fc4" stop-opacity="0"/></linearGradient><linearGradient id="linear-gradient-2" x1="66.88" y1="74.6" x2="66.23" y2="71.32" gradientTransform="matrix(1, 0.08, -0.08, 1, 45.54, -15.88)" gradientUnits="userSpaceOnUse"><stop offset="0" stop-color="#879fc4" stop-opacity="0"/><stop offset="0.47" stop-color="#587098" stop-opacity="0.45"/><stop offset="1" stop-color="#1e3661"/></linearGradient><linearGradient id="linear-gradient-3" x1="114.94" y1="60.03" x2="120.89" y2="60.03" gradientUnits="userSpaceOnUse"><stop offset="0.09" stop-color="#0e1022"/><stop offset="0.49" stop-color="#161e38" stop-opacity="0.3"/><stop offset="0.76" stop-color="#1a2441" stop-opacity="0"/></linearGradient><linearGradient id="linear-gradient-4" x1="112.49" y1="57.79" x2="114.98" y2="57.79" gradientUnits="userSpaceOnUse"><stop offset="0" stop-color="#1a2441" stop-opacity="0"/><stop offset="0.19" stop-color="#161d37" stop-opacity="0.33"/><stop offset="0.58" stop-color="#101427" stop-opacity="0.82"/><stop offset="0.88" stop-color="#0e1022"/></linearGradient><linearGradient id="linear-gradient-5" x1="99.54" y1="59.67" x2="104.81" y2="61.03" gradientUnits="userSpaceOnUse"><stop offset="0.14" stop-color="#0e1022"/><stop offset="0.27" stop-color="#111429" stop-opacity="0.78"/><stop offset="0.7" stop-color="#18203b" stop-opacity="0.21"/><stop offset="1" stop-color="#1a2441" stop-opacity="0"/></linearGradient><linearGradient id="linear-gradient-6" x1="96.97" y1="58.12" x2="99.46" y2="58.12" xlink:href="#linear-gradient-4"/><linearGradient id="linear-gradient-7" x1="88.5" y1="57.13" x2="91.48" y2="57.13" xlink:href="#linear-gradient-4"/><linearGradient id="linear-gradient-8" x1="118.22" y1="67.32" x2="123.24" y2="67.32" gradientUnits="userSpaceOnUse"><stop offset="0" stop-color="#879fc4" stop-opacity="0"/><stop offset="0.26" stop-color="#849cc1" stop-opacity="0.03"/><stop offset="0.46" stop-color="#7a92b7" stop-opacity="0.13"/><stop offset="0.62" stop-color="#6981a7" stop-opacity="0.29"/><stop offset="0.78" stop-color="#506891" stop-opacity="0.52"/><stop offset="0.92" stop-color="#324a73" stop-opacity="0.81"/><stop offset="1" stop-color="#1e3661"/></linearGradient><linearGradient id="linear-gradient-9" x1="115.58" y1="71.61" x2="117.73" y2="71.61" gradientTransform="matrix(1, 0, 0, 1, 0, 0)" xlink:href="#linear-gradient-2"/><linearGradient id="linear-gradient-10" x1="116.68" y1="67.05" x2="116.05" y2="64.65" gradientUnits="userSpaceOnUse"><stop offset="0" stop-color="#1e3661"/><stop offset="0.29" stop-color="#475f88" stop-opacity="0.61"/><stop offset="0.58" stop-color="#6a82a9" stop-opacity="0.28"/><stop offset="0.83" stop-color="#7f97bd" stop-opacity="0.07"/><stop offset="1" stop-color="#879fc4" stop-opacity="0"/></linearGradient><linearGradient id="linear-gradient-11" x1="107.31" y1="58.66" x2="110.9" y2="59.58" gradientUnits="userSpaceOnUse"><stop offset="0.07" stop-color="#0e1022"/><stop offset="0.38" stop-color="#101427" stop-opacity="0.82"/><stop offset="0.79" stop-color="#161d37" stop-opacity="0.33"/><stop offset="1" stop-color="#1a2441" stop-opacity="0"/></linearGradient><linearGradient id="linear-gradient-12" x1="98.38" y1="63.18" x2="101.48" y2="63.18" xlink:href="#linear-gradient-10"/><linearGradient id="linear-gradient-13" x1="94.55" y1="44.44" x2="96.62" y2="44.44" gradientTransform="translate(22.47 27.48) scale(0.92)" gradientUnits="userSpaceOnUse"><stop offset="0" stop-color="#1a2441" stop-opacity="0"/><stop offset="0.21" stop-color="#161d37" stop-opacity="0.33"/><stop offset="0.62" stop-color="#101427" stop-opacity="0.82"/><stop offset="0.93" stop-color="#0e1022"/></linearGradient><linearGradient id="linear-gradient-14" x1="94.23" y1="40.7" x2="96.3" y2="40.7" xlink:href="#linear-gradient-13"/><linearGradient id="linear-gradient-15" x1="118.17" y1="11.66" x2="120.25" y2="11.66" gradientTransform="translate(4.46 46.24) rotate(-4.03) scale(0.92)" xlink:href="#linear-gradient-13"/><linearGradient id="linear-gradient-16" x1="120.66" y1="6.23" x2="122.74" y2="6.23" gradientTransform="translate(1.97 48.47) rotate(-4.29) scale(0.92)" xlink:href="#linear-gradient-13"/><linearGradient id="linear-gradient-17" x1="105.03" y1="8.86" x2="107.11" y2="8.86" gradientTransform="translate(1.97 48.47) rotate(-4.29) scale(0.92)" xlink:href="#linear-gradient-13"/><linearGradient id="linear-gradient-18" x1="92.74" y1="5.09" x2="94.82" y2="5.09" gradientTransform="translate(1.97 48.47) rotate(-4.29) scale(0.92)" xlink:href="#linear-gradient-13"/><linearGradient id="linear-gradient-19" x1="93.15" y1="8.84" x2="95.23" y2="8.84" gradientTransform="translate(1.97 48.47) rotate(-4.29) scale(0.92)" xlink:href="#linear-gradient-13"/><linearGradient id="linear-gradient-20" x1="103.88" y1="60.24" x2="106.63" y2="60.24" gradientUnits="userSpaceOnUse"><stop offset="0" stop-color="#0e1022"/><stop offset="0.25" stop-color="#12172e" stop-opacity="0.63"/><stop offset="0.67" stop-color="#18213c" stop-opacity="0.16"/><stop offset="1" stop-color="#1a2441" stop-opacity="0"/></linearGradient><linearGradient id="linear-gradient-21" x1="128.64" y1="58.81" x2="127.98" y2="55.46" gradientUnits="userSpaceOnUse"><stop offset="0" stop-color="#1e3661"/><stop offset="0.53" stop-color="#587098" stop-opacity="0.45"/><stop offset="1" stop-color="#879fc4" stop-opacity="0"/></linearGradient><linearGradient id="linear-gradient-22" x1="129.6" y1="64.5" x2="128.88" y2="60.86" gradientTransform="matrix(1, 0, 0, 1, 0, 0)" xlink:href="#linear-gradient-2"/><linearGradient id="linear-gradient-23" x1="120.84" y1="50.13" x2="120.3" y2="47.41" gradientTransform="matrix(1, 0, 0, 1, 0, 0)" xlink:href="#linear-gradient-2"/><linearGradient id="linear-gradient-24" x1="81.13" y1="69.47" x2="88.01" y2="69.47" gradientUnits="userSpaceOnUse"><stop offset="0" stop-color="#879fc4" stop-opacity="0"/><stop offset="0.17" stop-color="#7f97bd" stop-opacity="0.07"/><stop offset="0.42" stop-color="#6a82a9" stop-opacity="0.28"/><stop offset="0.71" stop-color="#475f88" stop-opacity="0.61"/><stop offset="1" stop-color="#1e3661"/></linearGradient></defs><g id="Layer_2" data-name="Layer 2"><g id="Layer_1-2" data-name="Layer 1"><path class="cls-1" d="M108.12,214.6c-1.24,0-2.08,0-2.91-.11-9.69-.8-22-7.51-25.6-9.55-14.54-8.77-26.45-21.63-36.48-39.34-.35-.6-.67-1.22-1-1.85-.53-1.06-1-2.15-1.57-3.28-.38-.81-.76-1.61-1.15-2.41q-1.65-3.3-3.16-6.68a194.45,194.45,0,0,1-13.78-46c-.75-4.21-1.4-8.51-2-12.93,0,0-.1-.83-.1-.83-.11-.9-.19-1.81-.27-2.73L20,87s-.49-4.6-.69-7c-.46-5.09-.89-10.14-1.24-15.22l-1.1-16.22c-.34-5.1-.46-10.33-.57-15.39a3,3,0,0,1,0-.42l-.3-7.17c0-.05,0-2,0-2,.21-6.51,4-8.52,9.49-9.53l10.21-1.83a2.93,2.93,0,0,1,.65-.22l11-1.83c4.15-.76,8.43-1.53,12.77-2.28A339.86,339.86,0,0,1,98.66,3.06l7-.29,2.72.06,2.43-.07,7.25.3a339.71,339.71,0,0,1,38.45,4.86c4.34.75,8.62,1.52,12.82,2.28l11,1.83a2.67,2.67,0,0,1,.74.24l10.12,1.81c5.55,1,9.28,3,9.49,9.55,0,.22,0,2,0,2l-.3,7c0,.12,0,.24,0,.36-.11,5.14-.23,10.46-.58,15.65l-1.1,16.22c-.35,5.08-.77,10.14-1.24,15.24-.2,2.38-.68,7-.68,7l-.2,2c-.07.88-.16,1.75-.26,2.63l-.11.86c-.54,4.38-1.19,8.69-1.95,12.9a193.89,193.89,0,0,1-13.79,46q-1.5,3.38-3.14,6.68l-1,2.09c-.68,1.46-1.19,2.54-1.73,3.6-.32.63-.64,1.25-1,1.85-10,17.71-21.95,30.57-36.43,39.31-3.61,2.07-16,8.78-25.65,9.58-.88.08-1.78.12-2.68.12Z"/><path class="cls-2" d="M110.77,5.53H111l7,.29A335,335,0,0,1,156,10.65c4.33.74,8.6,1.51,12.8,2.27l11,1.84.12.12c3.81.68,7.47,1.33,10.7,1.92,5.34,1,7.09,2.51,7.23,6.91,0,.3,0,.64,0,1s0,.52,0,.81c-.11,2.46-.21,4.91-.31,7.37l0,0c-.11,5.1-.22,10.38-.57,15.52l-.54,8.22c-.13,1.91-.28,3.87-.41,5.8L196,64.63c-.35,5.05-.77,10.09-1.23,15.17-.21,2.38-.69,6.94-.69,6.94-.16,1.52-.26,3.06-.45,4.58l-.09.81q-.83,6.56-1.94,12.8A192.23,192.23,0,0,1,178,150.25q-1.49,3.33-3.1,6.57v0c-.4.82-.78,1.64-1.17,2.47-.51,1.1-1,2.16-1.53,3.19q-.45.88-.93,1.74c-9.76,17.24-21.42,29.83-35.45,38.3-2.86,1.64-15.16,8.43-24.45,9.2h0c-.84.07-1.69.1-2.54.1H108c-.85,0-1.7,0-2.54-.1h0c-9.29-.77-21.59-7.56-24.45-9.2-14-8.47-25.68-21.06-35.45-38.3-.32-.57-.62-1.15-.92-1.74-.53-1-1-2.09-1.54-3.19-.38-.83-.77-1.65-1.17-2.47v0q-1.62-3.24-3.1-6.57A192.7,192.7,0,0,1,25.2,104.93q-1.11-6.25-1.94-12.8l-.09-.81c-.19-1.52-.29-3.06-.45-4.58,0,0-.48-4.56-.69-6.94-.46-5.08-.88-10.12-1.23-15.17,0-.74-.1-1.47-.15-2.21-.13-1.93-.28-3.89-.41-5.8Q20,52.51,19.7,48.4c-.35-5.14-.46-10.42-.57-15.52l0,0c-.1-2.46-.2-4.91-.31-7.37,0-.29,0-.53,0-.81s0-.66,0-1c.14-4.4,1.9-5.94,7.23-6.91,3.23-.59,6.89-1.24,10.7-1.92l.12-.12,11-1.84c4.19-.76,8.46-1.53,12.79-2.27A335.24,335.24,0,0,1,98.81,5.82l7-.29H106c.8,0,1.59.06,2.39.06s1.59-.06,2.39-.06m0-5.53c-.47,0-1,0-1.42,0l-1,0-1,0c-.48,0-1,0-1.43,0h-.3l-7.1.29A342.85,342.85,0,0,0,59.78,5.2C55.44,6,51.15,6.72,46.94,7.48L36,9.3a6.64,6.64,0,0,0-1.08.3l-9.82,1.76c-5.33,1-11.48,3.23-11.76,12.18,0,.27,0,.62,0,1v.42c0,.26,0,.52,0,.8L13.55,31l.06,1.51c0,.16,0,.32,0,.48.11,5.16.23,10.49.58,15.77L14.73,57l.21,3.12.19,2.69.09,1.26.07,1c.35,5.1.77,10.18,1.24,15.3.21,2.39.69,7,.69,7,.07.64.12,1.26.18,1.89.08.93.17,1.86.28,2.78l0,.34.06.48c.55,4.39,1.21,8.79,2,13.08a197,197,0,0,0,14,46.62q1.53,3.44,3.2,6.78c.38.77.75,1.56,1.12,2.36.54,1.15,1.07,2.26,1.61,3.34q.51,1,1,2c10.27,18.12,22.5,31.31,37.41,40.31,3.78,2.17,16.57,9.12,26.84,10q1.5.12,3,.12h.82c1,0,2,0,3-.12,10.29-.85,23.08-7.8,26.75-9.91,15-9.06,27.25-22.25,37.51-40.37.37-.65.71-1.31,1.05-2,.55-1.08,1.07-2.19,1.61-3.34.37-.8.74-1.59,1.13-2.38,1.1-2.21,2.17-4.47,3.19-6.76a197,197,0,0,0,14-46.62c.76-4.29,1.42-8.69,2-13.07l.06-.49,0-.34c.11-.92.2-1.85.28-2.78.06-.63.11-1.25.18-1.87,0,0,.49-4.65.7-7.06.46-5.1.89-10.18,1.23-15.28l.07-1,.09-1.27.19-2.68L202,57l.54-8.21c.35-5.28.47-10.61.58-15.77,0-.16,0-.33,0-.49l.06-1.5.22-5.27a7.38,7.38,0,0,0,0-.81l-5.52-.26,5.53-.16c0-.35,0-.7,0-1-.29-8.9-6.44-11.16-11.77-12.13l-9.9-1.78a6,6,0,0,0-1-.28l-11-1.83C165.62,6.72,161.33,6,157,5.2A341.31,341.31,0,0,0,118.26.3L111.21,0Z"/><path class="cls-3" d="M61.71,70.18c.62-17.09,8.6-29.76,23.16-38.46.67-.39.74-.71.47-1.38-.8-2-.31-3.1,1.71-3.79a65.24,65.24,0,0,1,27.34-3.31,67.11,67.11,0,0,1,15.22,3.22,3.59,3.59,0,0,1,1.87,1.15,2.1,2.1,0,0,1,.19,2.41c-.5.9-.26,1.36.65,1.89a45,45,0,0,1,20.56,24.73,46.79,46.79,0,0,1,2.33,13.57.79.79,0,0,1-.83.42,26.31,26.31,0,0,1-3.06-.48.69.69,0,0,1-.55-.62,39.12,39.12,0,0,0-11.62-27,42,42,0,0,0-8.6-6.7c-.65-.39-1-.54-1.37.36-.56,1.39-1.67,1.72-3.36,1.15a54.16,54.16,0,0,0-34.28-.17c-2.38.79-2.78.67-4.05-1.43-.4-.65-.71-.14-1,0a38.48,38.48,0,0,0-7.6,5.63A39.31,39.31,0,0,0,66.16,68.33c0,.41-.24.9.25,1.23,0,.33-.2.47-.46.53-1.13.22-2.26.41-3.41.53A.79.79,0,0,1,61.71,70.18Z"/><path class="cls-4" d="M74.22,118.39c-2.55.38-5.09.84-7.65,1.12-2.23.25-3.71-.91-4.63-2.88a15.29,15.29,0,0,1-1.29-4.69c-1.46-10.22-3-20.42-4.41-30.65a9.12,9.12,0,0,1,.11-3.53A4.9,4.9,0,0,1,58.86,74a2,2,0,0,1,1.48-.87c2.08-.34,4.18-.54,6.25-.91a1.32,1.32,0,0,1,1.07.18,2.06,2.06,0,0,1,.63,1.26c1,6.09,1.77,12.2,2.66,18.3.7,4.81,1.42,9.63,2.12,14.44.52,3.56,1.07,7.12,1.52,10.69C74.65,117.6,74.67,118.05,74.22,118.39Z"/><path class="cls-4" d="M157.89,74a4.91,4.91,0,0,1,2.5,3.78c.55,2.24.05,4.43-.27,6.62q-2,13.39-3.91,26.79a16.91,16.91,0,0,1-1.4,5.46c-1.3,2.48-2.87,3.25-5.62,2.8-2.22-.36-4.45-.69-6.67-1-.5-.37-.47-.86-.39-1.4.72-4.52,1.36-9,2-13.56q1.05-7.33,2.11-14.67c.68-4.71,1.32-9.42,2.05-14.12a3.5,3.5,0,0,1,.77-2.16,1.35,1.35,0,0,1,1.15-.24c2,.21,4,.57,5.95.84A2.3,2.3,0,0,1,157.89,74Z"/><path class="cls-5" d="M74.22,118.39q-.69-4.89-1.39-9.79-1.31-9.22-2.64-18.47-.81-5.61-1.65-11.21c-.31-2.08-.66-4.16-1-6.25.48-.79,1.34-.51,2-.72.21.41.29.85.82,1.1a4.42,4.42,0,0,1,2.45,3.61q2.39,16.41,4.75,32.81c.19,1.28.4,2.56.58,3.85A4.37,4.37,0,0,1,74.22,118.39Z"/><path class="cls-5" d="M149.2,72.67c-.66,4.4-1.34,8.79-2,13.18-.56,3.81-1.1,7.62-1.65,11.43-.8,5.61-1.58,11.22-2.4,16.82-.21,1.43-.55,2.84-.64,4.28a4.3,4.3,0,0,1-4-4.86c1.26-8.83,2.56-17.65,3.84-26.47.49-3.35,1-6.69,1.44-10a4.71,4.71,0,0,1,2.6-4c.51-.23.52-.67.72-1C147.86,72.17,148.72,71.88,149.2,72.67Z"/><path class="cls-6" d="M154.81,116.62c.73-4.91,1.48-9.82,2.2-14.74q1.41-9.59,2.79-19.16a34.57,34.57,0,0,0,.59-5,9.93,9.93,0,0,1,.83,4.55,73.87,73.87,0,0,1-.66,12,98.41,98.41,0,0,1-3.34,17C156.65,113.17,156.16,115.1,154.81,116.62Z"/><path class="cls-6" d="M56.35,77.76c.28,3.67,1,7.28,1.48,10.91,1.12,8,2.3,15.93,3.46,23.89.2,1.36.44,2.71.65,4.07a7.07,7.07,0,0,1-1.54-2.8A79.65,79.65,0,0,1,56.62,97.5a87.76,87.76,0,0,1-1.11-14.74A11.28,11.28,0,0,1,56.35,77.76Z"/><path class="cls-7" d="M69.57,72c0,.49-.3.7-.8.68s-.82,0-1.22,0c-2.91.37-5.82.71-8.69,1.32-.24-2.28.55-3.33,2.85-3.81l4.7-.62A2.78,2.78,0,0,1,69.57,72Z"/><path class="cls-7" d="M149.2,72.67c-.4,0-.81-.06-1.21,0a.69.69,0,0,1-.82-.67c.44-1.81,1.39-2.45,3.6-2.43l4.44.68c2.22.56,2.92,1.55,2.68,3.76C155,73.41,152.11,73,149.2,72.67Z"/><rect class="cls-8" x="106.15" y="131.43" width="4.47" height="2.91"/><rect class="cls-8" x="100.19" y="150.48" width="16.39" height="2.25"/><rect class="cls-8" x="106.52" y="134.34" width="3.73" height="19.3"/><path class="cls-8" d="M121.05,111.29v9.33c0,6.33-5.67,11.46-12.67,11.46S95.71,127,95.71,120.62v-9.33h-1v9.89c0,6.55,6.11,11.87,13.66,11.87s13.67-5.32,13.67-11.87v-9.89Z"/><rect class="cls-8" x="123.28" y="110.32" width="2.61" height="7.77"/><rect class="cls-8" x="122.17" y="112.54" width="1.12" height="3.33"/><rect class="cls-8" x="90.87" y="110.32" width="2.61" height="7.77" transform="translate(184.35 228.4) rotate(180)"/><rect class="cls-8" x="93.48" y="112.54" width="1.12" height="3.33" transform="translate(188.08 228.4) rotate(180)"/><path class="cls-2" d="M108.38,87.26c-6,0-10.8,4.2-10.8,9.39V122c0,5.19,4.83,9.39,10.8,9.39s10.81-4.2,10.81-9.39V96.65C119.19,91.46,114.35,87.26,108.38,87.26Z"/><rect class="cls-9" x="96.83" y="106.37" width="23.1" height="6.84"/><path class="cls-1" d="M75.87,136.58,67,139.36a.55.55,0,0,0,.53.13,32,32,0,0,1,8.35.6s.32.19-.3.21S65,142.23,65,142.23s14.86.16,25.49,3.06c0,0,.06.24-.35.24a42,42,0,0,0-17.86,3.74l-8.67,5.5s-1.83.59-2.25.78a6.27,6.27,0,0,0-2.9,2.12s-1.35.48-1.56,1.16a1.92,1.92,0,0,0-1.84.73l-.15.76,45.7.33s2-.71,2.34-.38a3.48,3.48,0,0,0,3.5.89,36.22,36.22,0,0,1,6-.89,3.82,3.82,0,0,1,2.84-1c1.83.08,47.84,1.44,47.84,1.44s.59-.9-.59-.9-3-.21-3-.21-.91-1.63-4.38-1.3c0,0-.47-1.36-3.55-2.2l-8.82-4.49,9.86,2.41-14.3-5.95s5.3-.91,16.16.34L150.21,146l3.35-.1L140.35,141s-.12-.41-1.33-.14-7.16.84-8.85,1.3c0,0,13.29-3.44,19.3-3.95l-.86-.46-9.83-2.35,8.91-3.16a5.38,5.38,0,0,0-2-.45l-1.24-.35s-8.75-1-10.19-1.58c0,0-28.92,9.78-26.33,21.21C107.92,151.08,105.33,136.62,75.87,136.58Z"/><path class="cls-8" d="M163.5,159.51a.19.19,0,0,0-.28.06h0c-7.43-.28-14.86-.53-22.3-.8l-11.15-.39c-3.64-.13-7.3-.18-10.94-.41-1-.07-2.08-.22-3.12-.36a5.72,5.72,0,0,0-2.22,0,2.1,2.1,0,0,0-1.7,1.85l-.11,0h0a4.35,4.35,0,0,0-5.19-1.18l0,0a18.42,18.42,0,0,0-8.13-3.47,53.19,53.19,0,0,0-10.47-1c-7.47,0-14.84,1.48-22.17,2.59-2,.31-4.05.55-6.05.93a3.52,3.52,0,0,0-2.69,1.53c-.85,0-2.41.06-1.94,1.08h0l-.38,0h0a1.09,1.09,0,0,0-1.67.15c-.28.51.3,1.56,1,1.27h0a10.28,10.28,0,0,0,1.21.12c1.72.16,3.45.2,5.18.19,3.42,0,6.83-.28,10.24-.47q10.47-.57,21-.49,3,0,6,.1c1.61.05,3.35.27,4.87-.33a.11.11,0,0,0,.07-.09,3.23,3.23,0,0,0,2.38,1.14c1.29,0,2.61-.45,3.91-.56s2.48,0,3.69-.11a2,2,0,0,0,1.86-1.27c3.54.27,7.1.32,10.64.44l11,.37,21.83.74,3.17.11a5.27,5.27,0,0,0,2.17-.11C163.93,160.85,164.2,160,163.5,159.51Zm-55.59-.06-.53.05-.29,0C107.36,159.49,107.64,159.46,107.91,159.45ZM57.58,161.3l.31,0,.62,0Zm20.11-1.49H77v0l1.74,0Zm3.73,0h-.14a.28.28,0,0,0-.13,0h-1l1.33,0A.14.14,0,0,0,81.42,159.77Zm3.79.63,0,0,.52,0Zm1,0a.27.27,0,0,0,.1-.08c.52,0,1,0,1.56,0l1,0h0l.5,0Zm12.41.13.42,0,.06,0h.11s0,0,0,.05Zm5.28-.29c-1.39-1.72-4.39-1.22-6.41-1.18l-10.41.21-20.66.42-5.82.12c-1.79,0-3.6,0-5.38.11a.13.13,0,0,0,0-.06l.36-.35a.52.52,0,0,1,.6-.36,2.25,2.25,0,0,1,.52,0l1.23,0,2.47-.07,4.51-.13a.13.13,0,0,0,.14.07l.46-.09,9.66-.27,19.7-.54c3.18-.09,6.85-.51,9.52,1.41.15.11.37-.08.22-.2l-.2-.16a.11.11,0,0,0,0-.14c-2.16-1.7-5.38-1.81-8.08-2.08a102.13,102.13,0,0,0-10.64-.49,93.36,93.36,0,0,0-20,2.18l-2.15.06c-2.11.06-4.22.1-6.33.18h-.12c.69-1,2.14-1.24,3.37-1.42l5.25-.78L76,155.13a67.36,67.36,0,0,1,20.78-.27,21.51,21.51,0,0,1,9.4,3.56,3.68,3.68,0,0,0-1.4,1.42,1.68,1.68,0,0,0-.68.49Zm-27.22-2,.35,0h.8Zm21.43-.62.43-.07.59.08Zm13.45,2.26-.94,0c-.7,0-1.41,0-2.11,0a19,19,0,0,0-3.77.51l-.33,0-.1,0h0l-.09-.06c.86-.73,2.72-.57,3.79-.65a10,10,0,0,1,3.69,0Zm.92-1.29a1.33,1.33,0,0,0-.29.29,1.78,1.78,0,0,1,.45-.5Zm4.21.2s0,0,0,0l.22.05.12,0Zm6.9-.24-1-.07,1,0Zm4.51,1.16.21,0,1.18.08Zm11.06.38,1.2,0a.17.17,0,0,0,.12.06h.12Zm23.1-.16-.6-.06.72,0Z"/><path class="cls-8" d="M107.4,156.13a17.79,17.79,0,0,0-4.19-6.25A26,26,0,0,0,96.57,145c-5.6-2.92-11.84-3.75-18.1-4.68-3.76-.57-7.62-1.36-11.44-.9-.12,0-.13.17,0,.16a41.86,41.86,0,0,1,8.87.61c-1.76.13-3.54.47-5.28.76-1.9.32-3.78.7-5.65,1.16a.09.09,0,0,0-.08.09.07.07,0,0,0,0,.13c3,.12,5.95.16,8.92.4s6.12.65,9.15,1.16c2.42.41,4.92.84,7.36,1.44a37.75,37.75,0,0,0-9.06.88,32.65,32.65,0,0,0-8.65,2.84.15.15,0,0,0-.18,0c-1.79,1-3.52,2-5.23,3.15S64,154.73,62,155a.11.11,0,0,0-.07.17,6.58,6.58,0,0,0-3.35,2.14c0,.06.05.12.11.08,2.19-2,5.36-2.53,8.28-3.16q4.88-1.07,9.83-1.73c6.67-.88,13.88-1.65,20.54-.31a22.44,22.44,0,0,1,8.69,3.64c.12.15.23.31.34.47-3.84-2.63-8.82-3.47-13.52-3.76a75.91,75.91,0,0,0-16.84.88,66.41,66.41,0,0,0-9.73,2.14.06.06,0,0,0,0,.11c3.65-.74,7.21-1.59,10.93-2a93.93,93.93,0,0,1,10.48-.7c6.52,0,13.12.36,18.73,3.71.13.08.28-.1.16-.18h0a.1.1,0,0,0,0-.12.31.31,0,0,1-.05-.1l.14.12c.18.14.44-.1.26-.24s-.59-.48-.9-.71a12,12,0,0,0-6-4,30.54,30.54,0,0,0-9.41-1.63,48,48,0,0,0-9.87.85,86.27,86.27,0,0,0-10.56,2.52.06.06,0,0,0,0,.12c-1,.18-1.92.38-2.87.58s-2.17.46-3.25.73c1-.54,1.91-1.27,2.8-1.84,1.83-1.17,3.71-2.28,5.58-3.39h0a62.49,62.49,0,0,1,8.63-2.79,37.67,37.67,0,0,1,4.81-.7,5.87,5.87,0,0,0-1,1.15s0,.05,0,0a8.48,8.48,0,0,1,1-1.18c.58-.05,1.17-.09,1.75-.12a11.91,11.91,0,0,0-2,2.3s0,0,.05,0a17.44,17.44,0,0,1,2.06-2.33l1.15-.06c-.39.48-.77,1-1.14,1.46,0,0,0,0,0,0,.38-.49.77-1,1.14-1.48l1.39-.05A10.17,10.17,0,0,0,89,147.93c0,.06.07.11.1,0a15.5,15.5,0,0,1,1.61-2.43l0,0,.07-.08c.92.23,1.84.49,2.74.79a4.6,4.6,0,0,1-.55.62s0,.06,0,0a3.2,3.2,0,0,0,.58-.64,26.66,26.66,0,0,1,5.57,2.51,24.91,24.91,0,0,1,6.33,5.62c.07.09.22,0,.16-.08A22.7,22.7,0,0,0,93.76,146a90.82,90.82,0,0,0-18.06-3.32,84,84,0,0,0-9.9-.5c1.57-.32,3.15-.63,4.73-.92,1.84-.34,3.7-.54,5.53-.9a.08.08,0,0,0,0-.13l.93.15.47.07c-.62.28-1.23.58-1.88.82,0,0,0,0,0,0a10.89,10.89,0,0,0,2-.84l1.62.24-1.15.53s0,.06,0,0c.41-.18.83-.36,1.23-.55l1.92.29c-.58.27-1.17.52-1.78.74,0,0,0,.05,0,0a12.05,12.05,0,0,0,1.86-.75,0,0,0,0,0,0,0l1.46.23c-.71.35-1.41.72-2.11,1.08,0,0,0,.07,0,.06.73-.37,1.46-.74,2.18-1.12l1.58.27c-.41.21-.82.43-1.22.67,0,0,0,.05,0,0,.45-.22.88-.45,1.31-.69.62.11,1.24.22,1.85.35,5.74,1.15,11.28,3.4,15.53,7.17a22.18,22.18,0,0,1,3,3.28,26.83,26.83,0,0,1,2.21,3.8C107.3,156.25,107.42,156.2,107.4,156.13Zm-2.64-1.69.35.33-.38-.23A.19.19,0,0,0,104.76,154.44Zm-26.49-3,0,0-.59.09Zm-5.53,1.3a.19.19,0,0,0,0,.07q-.84.13-1.68.3Z"/><path class="cls-8" d="M145.26,131.47c-1.85-.28-3.73-.36-5.59-.63s-3.6-.65-5.4-1h0l-.12,0a.1.1,0,0,0-.12.1c-2.93,1-5.8,2.27-8.61,3.52a72.12,72.12,0,0,0-8.33,4.32c-4.35,2.67-9.62,6.61-9.12,11.92a.07.07,0,0,0,0,.06v.07s-.05,0-.06,0a.64.64,0,0,0,0,.07.15.15,0,0,0-.24,0c-1.5-5-6.4-8.45-11.49-10.25a58.31,58.31,0,0,0-9.81-2.31,36,36,0,0,0-10.14-.75.11.11,0,0,0-.13-.14c-1.54.4-3,1-4.55,1.42s-3.07.86-4.57,1.36c-.12,0-.07.19,0,.17a45.27,45.27,0,0,0,4.77-1.28A41.41,41.41,0,0,0,76,136.73a.09.09,0,0,0,.09.09c.82,0,1.64,0,2.45,0a14.63,14.63,0,0,0-2.17,1.08s0,.05,0,0c.76-.38,1.53-.74,2.3-1.1l1.2.06a9.25,9.25,0,0,1-1.45.8s0,0,0,0a5.24,5.24,0,0,0,1.52-.84l1.6.13c-.64.37-1.26.76-1.92,1.11,0,0,0,0,0,0a12.94,12.94,0,0,0,2-1.14l1.15.13c-.32.17-.62.36-.93.54a0,0,0,1,0,0,0c.34-.18.69-.37,1-.57q.87.1,1.74.24c-.64.33-1.26.71-1.89,1.07,0,0,0,.09,0,.07.67-.37,1.37-.71,2-1.12l1.36.22a65,65,0,0,1,9.06,2.08c5.44,1.8,10.53,5.14,12.21,10.42a.1.1,0,0,0,.11.06c.12,2.34.28,4.69.53,7,0,.1.18.1.17,0,0-2-.17-3.93-.33-5.9,0,0,0,0,0,0,.06-.35.11-.7.14-1.05a.1.1,0,0,0,.11-.09c-.41-5.94,5.21-9.88,10.12-12.75a76.4,76.4,0,0,1,7.82-4c2.67-1.19,5.44-2.2,8.09-3.42a37.89,37.89,0,0,0,5.51,1.12,30.64,30.64,0,0,0,5.49.43C145.33,131.61,145.36,131.48,145.26,131.47Z"/><path class="cls-8" d="M154.21,158.85A148.43,148.43,0,0,0,134,155.34a64.53,64.53,0,0,0-9.83-.31,34.12,34.12,0,0,0-9.6,1.61,0,0,0,0,0,0,.05,14.71,14.71,0,0,0-3.23,1.25c-.1.05,0,.19.09.14a21.67,21.67,0,0,1,7.7-1.83c1.16,0,2.34,0,3.49,0l2.42,0c1.86.1,3.71.25,5.5.36,7,.45,13.87,1.28,20.8,2a.09.09,0,0,0,.07,0l1.44.17a.08.08,0,0,0,.09-.08l.37.07h0l.88.17C154.25,159,154.28,158.86,154.21,158.85Zm-37.4-2.61.77-.15s0,0,.06,0Z"/><path class="cls-10" d="M111.88,156.82h0"/><path class="cls-10" d="M149.26,156.82h0"/><path class="cls-8" d="M152.81,157.66a5,5,0,0,0-2.27-.75c-1.56-.47-3.16-.86-4.78-1.19-2.49-.61-5.06-1-7.6-1.34-3.19-.45-6.39-.91-9.62-1.09-5.79-.32-12.06.27-16.87,3.52a.08.08,0,0,0,.08.13c5.1-3.07,11.15-3.81,17.14-3.42,2.94.19,5.87.61,8.79,1-1.48-.14-3-.24-4.42-.31a89.49,89.49,0,0,0-9.69,0c-2.79.16-6,.19-8.58,1.43,0,0,0,.09,0,.07a31.21,31.21,0,0,1,9-1.34,86,86,0,0,1,9.36,0,87.59,87.59,0,0,1,9.57,1.1c3,.5,5.93,1.22,8.89,1.89l.38.16a.18.18,0,0,0,.19.22.17.17,0,0,0,.16-.08l.1,0C152.81,157.84,152.89,157.72,152.81,157.66Z"/><path class="cls-8" d="M159.51,159.27a5.7,5.7,0,0,0-1.83-.86,6.68,6.68,0,0,0-.89-.18c-.45-.06-1,.06-1.45,0s-.57-.57-.89-.82l-.21-.15a0,0,0,0,0,0-.06l-.38-.18-.5-.23c-1.58-.74-3.16-1.47-4.73-2.24-1.85-.89-3.62-2-5.52-2.81l.15,0a87.66,87.66,0,0,1,9.52,2.52.13.13,0,0,0,.1-.23l.2.06c.06,0,.1-.07,0-.09-2.5-1-5-1.92-7.54-2.95-2.3-.94-4.53-2.11-6.85-3,1.89-.12,3.79-.2,5.69-.2a95.57,95.57,0,0,1,10.29.68h.05l.08,0c.05,0,.11,0,.06-.08l-.06-.05c0-.07,0-.16-.09-.17l-.19,0a16.31,16.31,0,0,0-3.92-2.12c1.06,0,2.12,0,3.17-.11a.14.14,0,1,0,0-.28h-.21a.18.18,0,0,0-.12-.16c-2.25-.84-4.53-1.61-6.79-2.44s-4.35-1.67-6.57-2.37a.1.1,0,0,0-.08,0h0l-.09,0a.08.08,0,0,0-.1,0,36.76,36.76,0,0,0-4.2.51c-.9.14-1.81.28-2.71.45,1.88-.51,3.79-1,5.7-1.4,3.64-.81,7.34-1.29,11-2l0,0a.12.12,0,0,0,0-.24,49.83,49.83,0,0,0-5.43-1.44c-1.8-.43-3.61-.87-5.45-1.2,2.91-1.1,5.85-2.1,8.82-3a.13.13,0,0,0,.09-.12l.14,0a.06.06,0,1,0,0-.11,7,7,0,0,0-2.39-.57h0c-.12-.1-.29.06-.18.17l.2.2c-6.24,1.63-12,4.43-17.82,7.09-5.47,2.52-10.62,5.42-14.38,9.95-1.92,2.32-4.31,5.19-4.34,8.22,0,.09.14.09.15,0,.24-2.85,2.26-5.38,4.07-7.62a29.09,29.09,0,0,1,6.67-6.07,63.1,63.1,0,0,1,7.43-4c2.75-1.29,5.5-2.58,8.31-3.78a87.31,87.31,0,0,1,10.06-3.64.16.16,0,0,0,.24-.07h0a.08.08,0,0,0,0-.15c.49.1,1,.16,1.48.26a129.56,129.56,0,0,0-17.51,6.76c-5.4,2.52-10.86,5.19-15,9.33a25.1,25.1,0,0,0-5.09,7c0,.06.07.09.1,0a36.83,36.83,0,0,1,4.74-6.37,32.12,32.12,0,0,1,6-4.88,3.66,3.66,0,0,0,1.15.58s0,0,0-.06a5.78,5.78,0,0,1-1.11-.56l.45-.27.57-.35v0l1.38.57s0,0,0,0l-1.38-.58c2.31-1.38,4.72-2.64,7.18-3.81l2.35,1.09s.06,0,0,0c-.77-.36-1.54-.72-2.33-1.07l1.05-.49h0a14.13,14.13,0,0,0,1.89.88s0,0,0,0a15.74,15.74,0,0,1-1.86-.87l1.27-.57a22.75,22.75,0,0,0,4.25,1.79s0,0,0,0a30,30,0,0,1-4.21-1.78c2-.89,4-1.74,6.07-2.54l1.18-.46s0,.06.05.07c1.81.46,3.65.87,5.46,1.33,1.62.41,3.24.93,4.88,1.3a77.8,77.8,0,0,0-9.38,1.58c-3.37.72-6.71,1.57-10,2.56l-.27.08h0s0,0,0,0a41.56,41.56,0,0,0-8,3.08A30.7,30.7,0,0,0,115,150.1a25.61,25.61,0,0,0-5.36,6.91.07.07,0,0,0,.12.06,33.89,33.89,0,0,1,4.79-6.13,32,32,0,0,1,6.36-4.79,33.41,33.41,0,0,1,5.17-2.34c.85.55,1.72,1.1,2.59,1.64,0,0,.05,0,0,0-.85-.55-1.71-1.09-2.57-1.62l1.26-.44,1.43,1.19s0,0,0,0l-1.42-1.18.85-.27a12.64,12.64,0,0,0,1.44,1.05,0,0,0,1,0,0,0,16,16,0,0,1-1.42-1l.82-.26.56-.16c1.29.92,2.63,1.79,4,2.59,0,0,.08,0,0-.05q-2.06-1.23-4-2.56l1.59-.47.24,0s0,0,0,0c.52.37,1.05.73,1.58,1.09,0,0,.06,0,0,0l-1.58-1.08c1.3-.18,2.6-.41,3.9-.59,1.47-.21,3-.31,4.43-.58,2.11.93,4.32,1.68,6.5,2.48s4.29,1.58,6.46,2.31c-3.11-.11-6.26,0-9.37.07-3.39,0-6.79.13-10.17.47-6.07.61-12.28,2.12-17.43,5.21A14.78,14.78,0,0,0,110,157.4c0,.06.06.11.1,0,2.77-4.68,8.22-7.33,13.54-9,6.13-1.91,12.62-2.27,19-2.34,2.6,0,5.22.06,7.83,0a.09.09,0,0,0,0,.14c1.15.69,2.39,1.28,3.59,1.91-6.76-1-13.59-.56-20.38,0-6,.48-12.63,1-17.91,4-.07,0,0,.14.07.11,5.44-2.52,11.27-3.3,17.26-3.8h0a4,4,0,0,0,1.06.75s.05,0,0,0a5.68,5.68,0,0,1-1-.72l.94-.08c.52.36,1,.71,1.57,1a0,0,0,1,0,0,0c-.5-.35-1-.68-1.51-1l1.49-.11h0c.59.42,1.18.83,1.79,1.22,0,0,.07,0,0-.06l-1.75-1.18,2.56-.18a61.66,61.66,0,0,0,7.38,3.26c1.77.73,3.56,1.45,5.38,2.09A84.05,84.05,0,0,0,135,150c-5.56-.64-11.43-.52-16.68,1.47a19,19,0,0,0-6.74,4.25s0,.11.08.07A24.34,24.34,0,0,1,125.54,150c5.87-.61,11.8.44,17.5,1.67-.09,0-.16.09-.08.15a38.43,38.43,0,0,0,5.5,2.91c.74.36,1.49.7,2.24,1-2.8-.95-5.67-1.74-8.55-2.42-3.58-.84-7.22-1.47-10.88-2a30.39,30.39,0,0,0-10,0,19.32,19.32,0,0,0-9.24,4.46s0,.12.09.08a24.52,24.52,0,0,1,7.25-3.81,22.88,22.88,0,0,1,8.44-.9,97.55,97.55,0,0,1,18,3.3c1.61.44,3.2.91,4.79,1.4.45.14,1,.28,1.55.44s1.11.46,1.67.68a2.3,2.3,0,0,1,1.14,1.25.1.1,0,0,0,.1.07,7.44,7.44,0,0,1,4.37,1A.08.08,0,1,0,159.51,159.27Z"/><path class="cls-8" d="M86.22,142a3.32,3.32,0,0,1-1.08.54s0,.06,0,.05a2.62,2.62,0,0,0,1.11-.54S86.25,141.93,86.22,142Z"/><path class="cls-8" d="M124.07,143.51l-1.3-.48s0,0,0,0l1.3.48S124.1,143.52,124.07,143.51Z"/><path class="cls-8" d="M135,138.87c-.67-.35-1.36-.68-2.06-1a0,0,0,1,0,0,0c.69.32,1.37.66,2.05,1C135.05,138.92,135.07,138.88,135,138.87Z"/><path class="cls-8" d="M137.64,138.64a16,16,0,0,0-3.15-1.43s-.05,0,0,0a17.42,17.42,0,0,1,3.13,1.44A0,0,0,0,0,137.64,138.64Z"/><path class="cls-8" d="M137.63,137.47a5.65,5.65,0,0,0-1.61-.9s-.06,0,0,.06a6.59,6.59,0,0,1,1.58.88S137.66,137.49,137.63,137.47Z"/><path class="cls-8" d="M134.84,143a12.79,12.79,0,0,0-1.71-1s-.06,0,0,0c.59.31,1.15.65,1.7,1C134.83,143.07,134.87,143,134.84,143Z"/><path class="cls-8" d="M92.41,145.92l-.84,1.14s0,0,0,0l.85-1.14S92.42,145.9,92.41,145.92Z"/><path class="cls-2" d="M129.56,69.75c0-.62-.11-1.48-.26-2.57s-.34-2.37-.6-3.83c-.13-.77-.28-1.6-.45-2.5s-.32-1.81-.47-2.72-.28-1.82-.4-2.71-.19-1.7-.23-2.45a4.4,4.4,0,0,1,.11-.6c.08-.32.16-.65.27-1A13,13,0,0,1,128,50a11.36,11.36,0,0,1,.3,1.89c.18,1.83.39,3.52.63,5.06s.45,3,.64,4.21c.09.54.17,1.13.26,1.77s.17,1.28.24,1.92.13,1.27.18,1.86.07,1.13.07,1.61a7.25,7.25,0,0,1,0,.73c0,.29-.08.56-.13.84a3.29,3.29,0,0,1-.19.68c-.08.19-.16.28-.25.28s-.13-.09-.15-.28,0-.37,0-.55Z"/><polygon class="cls-9" points="89.58 46.22 87.41 45.18 85.98 47.25 88.15 48.3 89.58 46.22"/><polygon class="cls-9" points="86.59 50.68 88.76 51.71 90.2 49.65 88.03 48.59 86.59 50.68"/><polygon class="cls-9" points="101.07 48.85 98.9 47.79 97.47 49.88 99.64 50.91 101.07 48.85"/><polygon class="cls-9" points="115.22 45.32 113.05 44.29 111.62 46.35 113.79 47.41 115.22 45.32"/><polygon class="cls-9" points="112.22 49.79 114.4 50.82 115.84 48.75 113.67 47.7 112.22 49.79"/><path class="cls-9" d="M107.34,81.5s-1.27-1.08-1.31-5.28l-.13,7.84S106.34,82.11,107.34,81.5Z"/><path class="cls-9" d="M105.94,84.06l-.12-7.84c0,4-1.31,5.28-1.31,5.28C105.5,82.11,105.94,84.06,105.94,84.06Z"/><path class="cls-9" d="M105.6,78.46c.06-.62.09-1.48.09-2.57s0-2.4-.07-3.89c0-.77-.07-1.61-.11-2.53s-.37-7.57-.39-8.49-.31-4.72-.31-5.62,0-1.71.1-2.46a5,5,0,0,1,.2-.58c.11-.31.25-.63.4-1a11.31,11.31,0,0,1,.68-1.28,11.69,11.69,0,0,1,0,1.92c-.07,1.84,0,3.69.06,5.26s.49,11.44.51,12.71c0,.55,0,1.15,0,1.79s0,1.29,0,1.94,0,1.27-.08,1.87-.08,1.12-.15,1.59a5.28,5.28,0,0,1-.15.73c-.07.27-.15.54-.24.8a4.22,4.22,0,0,1-.28.66c-.11.17-.2.25-.28.24s-.13-.11-.12-.3,0-.37.06-.55Z"/><path class="cls-11" d="M105,59.33s.59,0,1.32-.85l-.09-2.87-1.41,0Z"/><path class="cls-12" d="M106.4,60.42a4.77,4.77,0,0,1-1.26,1.06l.12,2.41,1.27-.16Z"/><path class="cls-2" d="M118.58,69.13l-.85.11a14.49,14.49,0,0,1-.4,1.66,10.77,10.77,0,0,1-1.06,2.52,8.31,8.31,0,0,1-.93,1.31,9.28,9.28,0,0,1-1.19,1.16,6.93,6.93,0,0,1-1.28.85,2.72,2.72,0,0,1-1.18.32c-.74-.13-1.34-.24-1.81-.34l-1.52-.33c-.54-.11-1-.23-1.5-.35a12.86,12.86,0,0,1-1.58-.56l.32-.09h1.16c.39,0,.82,0,1.3,0a10.71,10.71,0,0,0,1.51-.21,16.77,16.77,0,0,0,1.63-.45,9.18,9.18,0,0,0,1.67-.76,9.71,9.71,0,0,0,2.85-2.68,3.71,3.71,0,0,0,.91-2c-.45,0-.57.11-1.06.12s-1,0-1.51,0a3,3,0,0,1-1.11-.17,1.92,1.92,0,0,1-.71-.47,1.71,1.71,0,0,1-.39-.68,2.53,2.53,0,0,1-.13-.83,5.29,5.29,0,0,1,.08-.86q.09-.47.21-.87c.08-.28.17-.53.26-.78s.17-.43.24-.58a3.62,3.62,0,0,1,.77-1,2.43,2.43,0,0,1,.57-.37,1.45,1.45,0,0,1,.66-.14,2.28,2.28,0,0,1,.94.18,3,3,0,0,1,.75.49,4.9,4.9,0,0,1,.94,1.38,6.34,6.34,0,0,1,.59,2.23l1.56-.11Zm-2.7-2.22a3.93,3.93,0,0,0-.41-.91,2.32,2.32,0,0,0-.59-.63,1.53,1.53,0,0,0-.95-.29,1.06,1.06,0,0,0-.71.22,1.77,1.77,0,0,0-.43.48,2.29,2.29,0,0,0-.24.69,2.15,2.15,0,0,0,.73.35,4.3,4.3,0,0,0,1,.11Z"/><polygon class="cls-9" points="107.95 68.79 109.55 66.83 111.62 68.06 110.03 70 107.95 68.79"/><polygon class="cls-9" points="107.62 65.32 109.23 63.38 111.31 64.59 109.69 66.55 107.62 65.32"/><path class="cls-9" d="M136.71,55.86c-.07-.39-.14-.75-.23-1.08a5.68,5.68,0,0,0-.47-1.19,5.77,5.77,0,0,0-.39,1c-.07.26-.14.52-.19.77a2.82,2.82,0,0,0-.09.53.71.71,0,0,0,.09.29c0,.13.12.27.2.44a3.4,3.4,0,0,1,.19.54,2.15,2.15,0,0,1,.09.61c0,.24,0,.38-.12.44a.93.93,0,0,1-.47.08,5.85,5.85,0,0,1-1.8-.3,4.08,4.08,0,0,1-1.52-.83c.12-.45.21-.84.27-1.18a6.92,6.92,0,0,0,.08-1,1.5,1.5,0,0,0-.18-.6c-.11,0-.23.12-.35.34a6.75,6.75,0,0,0-.38.8l-.39,1a7.52,7.52,0,0,1-.38.83,3.3,3.3,0,0,1-1.12,1.2,3.46,3.46,0,0,1-1.91.47,6.15,6.15,0,0,1-1.79-.2,1.87,1.87,0,0,1-.86-.49c.05-.12.12-.32.22-.6a3.21,3.21,0,0,0,.18-.87.64.64,0,0,0-.17-.36.54.54,0,0,0-.31.18l-.42.42-.5.51a3.58,3.58,0,0,1-.54.45,5,5,0,0,1-.83.44,7.8,7.8,0,0,1-.93.31,8.26,8.26,0,0,1-.89.18,7.24,7.24,0,0,1-.74,0l-.81,0-1-.05a8,8,0,0,1-.94-.1,1.47,1.47,0,0,1-.52-.14,1.33,1.33,0,0,0,.46-.5,5.16,5.16,0,0,0,.45-1,9.85,9.85,0,0,0,.36-1.31,7,7,0,0,0,.15-1.44c0-.34,0-.68,0-1a5.16,5.16,0,0,0-.17-1,2.05,2.05,0,0,0-.35-.71.81.81,0,0,0-.63-.28,2.91,2.91,0,0,0-1.39.46,6,6,0,0,0-1.47,1.25A7.43,7.43,0,0,0,113,55.09a5.68,5.68,0,0,0-.48,2.33,1.54,1.54,0,0,0,.18.72,4.83,4.83,0,0,0,.29.51l-.37.17-.42.13-.55.09a2.22,2.22,0,0,1-1-.27,6.46,6.46,0,0,1-1-.61,5.44,5.44,0,0,1-.73-.68c-.2-.22-.3-.37-.3-.44s.15-.36.19-.47a3.24,3.24,0,0,1,.13-.33A.74.74,0,0,0,109,56a1.57,1.57,0,0,0,0-.27c0-.11-.09-.16-.22-.16a.75.75,0,0,0-.57.24,3.66,3.66,0,0,0-.53.77A9.54,9.54,0,0,1,106,58.66a2.21,2.21,0,0,1-1.48.73h0c-.19,0-.46,0-.81,0l-1,0c-.35,0-.66,0-.94-.09a1.18,1.18,0,0,1-.52-.15,1.33,1.33,0,0,0,.46-.5,5.16,5.16,0,0,0,.45-1,10.12,10.12,0,0,0,.36-1.3,7.07,7.07,0,0,0,.15-1.45c0-.33,0-.68,0-1a5.31,5.31,0,0,0-.17-1,1.78,1.78,0,0,0-.36-.7.75.75,0,0,0-.62-.28,2.88,2.88,0,0,0-1.39.45,6,6,0,0,0-1.47,1.25,7.43,7.43,0,0,0-1.17,1.87A5.68,5.68,0,0,0,97,57.77a1.65,1.65,0,0,0,.17.72,4.32,4.32,0,0,0,.3.51,2.12,2.12,0,0,1-.37.18c-.14,0-.28.09-.42.12a4.1,4.1,0,0,1-.56.09,2.73,2.73,0,0,1-.65-.09A2.36,2.36,0,0,1,94.7,59a3.29,3.29,0,0,1-.74-.68,4.67,4.67,0,0,1-.68-1.12,11.8,11.8,0,0,1-.49-1.28c-.14-.46-.28-.94-.4-1.43s-.24-1-.35-1.48-.19-1-.28-1.43-.12-.76-.16-1.13-.08-.69-.13-1a3.59,3.59,0,0,0-.17-.67c-.06-.17-.14-.26-.25-.26s-.19.1-.24.29-.08.45-.11.75,0,.63,0,1l0,1.05a9.17,9.17,0,0,0-1,.6c-.4.27-.8.57-1.2.88L87.35,54a4.63,4.63,0,0,0-.7.67,4,4,0,0,0-.48.82,7.64,7.64,0,0,0-.34.94c-.09.31-.16.61-.21.88a3.71,3.71,0,0,0-.07.62.45.45,0,0,0,.22.37,2,2,0,0,0,.6.28,4.28,4.28,0,0,0,.83.18,7.3,7.3,0,0,0,.94.06,5.8,5.8,0,0,0,1.22-.1,2.19,2.19,0,0,0,.82-.35,2.94,2.94,0,0,0,.64-.67c.19-.28.41-.63.66-1,.06.23.13.51.22.84s.2.66.32,1,.26.67.41,1a4.36,4.36,0,0,0,.44.79,3.75,3.75,0,0,0,.77.84,3.58,3.58,0,0,0,.74.45,2.36,2.36,0,0,0,.61.17l.39,0h0A6.34,6.34,0,0,0,97,61.57a10.36,10.36,0,0,0,1.27-.43,6.25,6.25,0,0,0,1.11-.62,3.13,3.13,0,0,0,.91.62,8.67,8.67,0,0,0,1.37.43,10.15,10.15,0,0,0,2.17.19,3.33,3.33,0,0,0,.78-.09,2.59,2.59,0,0,0,.79-.35,5.22,5.22,0,0,0,.84-.72,10.17,10.17,0,0,0,.92-1.21,7.34,7.34,0,0,0,.67.72,5.56,5.56,0,0,0,.84.66,4.29,4.29,0,0,0,1,.46,3.76,3.76,0,0,0,1.19.18h0a6.33,6.33,0,0,0,1.63-.2,9,9,0,0,0,1.27-.42,6.78,6.78,0,0,0,1.12-.63,3,3,0,0,0,.9.63,7.83,7.83,0,0,0,1.37.42,10.12,10.12,0,0,0,2.18.2h0a7.28,7.28,0,0,0,1.92-.29,5.72,5.72,0,0,0,1.86-.89,2.77,2.77,0,0,0,.61.42,5.09,5.09,0,0,0,.93.4,10,10,0,0,0,1.22.29,9.36,9.36,0,0,0,1.44.11,3.88,3.88,0,0,0,2.23-.59A5.49,5.49,0,0,0,131,59.45a6,6,0,0,0,1.68.81,6.66,6.66,0,0,0,2.14.34,1.2,1.2,0,0,0,.79-.31,2.69,2.69,0,0,0,.62-.83,5.54,5.54,0,0,0,.41-1.19,6.84,6.84,0,0,0,.14-1.37A5.12,5.12,0,0,0,136.71,55.86Zm-48.35.58a1.54,1.54,0,0,1-1.13-.33,2.48,2.48,0,0,1,.67-.87c.33-.31.69-.62,1.07-.93L90,53.42a2.76,2.76,0,0,0,.7-.78c0,.23.05.49.09.79s.08.57.13.86.1.55.16.8.1.46.14.62A7.46,7.46,0,0,1,88.36,56.44Zm12.29,1.17a6.37,6.37,0,0,1-.62.44,3.08,3.08,0,0,1-.52.28,3.92,3.92,0,0,1-.45-.21,3.59,3.59,0,0,1-.57-.36,2.63,2.63,0,0,1-.49-.51,1,1,0,0,1-.21-.6A1.76,1.76,0,0,1,98,55.8a3.42,3.42,0,0,1,.65-.78,3.55,3.55,0,0,1,.88-.56,2.19,2.19,0,0,1,.94-.22.52.52,0,0,1,.41.21,1.54,1.54,0,0,1,.29.54,4,4,0,0,1,.18.77,6.36,6.36,0,0,1,.06.87,1.1,1.1,0,0,1-.27.47A3.68,3.68,0,0,1,100.65,57.61Zm15.51-.35c-.2.16-.41.3-.62.44A4,4,0,0,1,115,58a3.92,3.92,0,0,1-.45-.21,3.19,3.19,0,0,1-.56-.37,2.37,2.37,0,0,1-.5-.5,1,1,0,0,1-.21-.6,1.68,1.68,0,0,1,.26-.85,3,3,0,0,1,.64-.78,3.9,3.9,0,0,1,.88-.57,2.38,2.38,0,0,1,.94-.22.52.52,0,0,1,.41.21,1.59,1.59,0,0,1,.29.55,3.8,3.8,0,0,1,.18.77,6.15,6.15,0,0,1,.06.87.92.92,0,0,1-.27.47A4.31,4.31,0,0,1,116.16,57.26Z"/><path class="cls-13" d="M116.66,58.74a12.38,12.38,0,0,1-1.72,1.42s.54.82,2.85,1.17l3.1-.92-1.61-1.36A13.83,13.83,0,0,1,116.66,58.74Z"/><path class="cls-14" d="M115,58s-1.88.51-2.07.62a2.53,2.53,0,0,1-.42-1.26c0-.6,1-.47,1-.47a1.89,1.89,0,0,0,.69.66A5.89,5.89,0,0,0,115,58Z"/><path class="cls-15" d="M101.2,59.07a16.07,16.07,0,0,1-1.8,1.42s.53.85,2.84,1.19l2.6-1.3-1.11-1A10.17,10.17,0,0,1,101.2,59.07Z"/><path class="cls-16" d="M99.46,58.4s-1.88.47-2.07.59A2.53,2.53,0,0,1,97,57.73c0-.61,1-.48,1-.48s.1.28.66.65A6.11,6.11,0,0,0,99.46,58.4Z"/><path class="cls-2" d="M90.4,60.66a1.71,1.71,0,0,1,.88.21,2.61,2.61,0,0,1,.66.54,7.79,7.79,0,0,1,.54.71,7.36,7.36,0,0,0,.55.7,2.58,2.58,0,0,0,.69.54,1.92,1.92,0,0,0,.94.21,4,4,0,0,0,2.11-.51A3.35,3.35,0,0,0,98,61.82a8.49,8.49,0,0,0,.38-.83q.19-.5.39-1a8.8,8.8,0,0,1,.38-.8c.12-.23.24-.34.35-.34a1.5,1.5,0,0,1,.18.6,5.7,5.7,0,0,1-.08,1,10.22,10.22,0,0,1-.26,1.17,3.92,3.92,0,0,0,1.51.84,5.91,5.91,0,0,0,1.81.3,1,1,0,0,0,.47-.08c.07-.06.11-.2.11-.44a2.55,2.55,0,0,0-.08-.61,3.93,3.93,0,0,0-.19-.55l-.19-.43a.85.85,0,0,1-.08-.29,3.55,3.55,0,0,1,.08-.53c.06-.25.12-.51.19-.77a6,6,0,0,1,.4-1,6.06,6.06,0,0,1,.45,1.19c.09.33.16.69.23,1.08a6,6,0,0,1,.11,1,6.19,6.19,0,0,1-.15,1.37,4.81,4.81,0,0,1-.41,1.18,2.62,2.62,0,0,1-.62.84,1.21,1.21,0,0,1-.78.31,6.62,6.62,0,0,1-2.14-.34,6,6,0,0,1-1.69-.81,4.82,4.82,0,0,1-1.75,1.57,6,6,0,0,1-2.83.58,2.41,2.41,0,0,1-1.1-.24,4,4,0,0,1-.87-.59,5.43,5.43,0,0,1-.68-.76c-.2-.28-.41-.54-.61-.77a4.1,4.1,0,0,0-.61-.58,1.11,1.11,0,0,0-.69-.24,3.62,3.62,0,0,0-1.1.2,7.27,7.27,0,0,0-1.32.55,9.65,9.65,0,0,0-1.3.8,5.46,5.46,0,0,0-1,1,7,7,0,0,1,1.39.52,14.75,14.75,0,0,1,1.38.72,11.68,11.68,0,0,1,1.5,1.08,2.81,2.81,0,0,1-.09.59c-.05.25-.12.51-.19.78a5.59,5.59,0,0,1-.45,1,2.94,2.94,0,0,1-.61.08l-1.26.12-1.6.18a12.72,12.72,0,0,0-1.63.32,6.31,6.31,0,0,0-1.32.48,1.35,1.35,0,0,0-.71.71,2.16,2.16,0,0,0-.12.4,3,3,0,0,0,0,.5,10.31,10.31,0,0,0,.11,1.19c.07.53.16,1.14.26,1.82s.22,1.4.35,2.15.24,1.5.35,2.22.19,1.39.26,2a14.35,14.35,0,0,1,.11,1.53c0,.25,0,.51,0,.79s0,.54,0,.77a3.39,3.39,0,0,1-.09.58c0,.16-.1.23-.17.23s-.13-.17-.2-.52-.14-.75-.21-1.2-.14-.92-.2-1.37-.11-.78-.15-1c-.16-.75-.3-1.51-.44-2.26s-.26-1.49-.37-2.19-.18-1.37-.24-2a14.78,14.78,0,0,1-.1-1.65,10.06,10.06,0,0,1,.16-1.92,8.78,8.78,0,0,1,.38-1.44,4.13,4.13,0,0,1,.5-1,2.62,2.62,0,0,1,.52-.56,2.91,2.91,0,0,1,.86-.49,6.72,6.72,0,0,1,.93-.27l1-.22-.57-.21-.49-.1a2.43,2.43,0,0,0-.42,0l-.45,0-.24,0-.19,0a1.06,1.06,0,0,1-.28,0c-.1,0-.15-.09-.15-.29a2.43,2.43,0,0,1,.44-1.2A7.65,7.65,0,0,1,83.08,65c.33-.33.79-.75,1.37-1.24a21.77,21.77,0,0,1,1.9-1.41,13.9,13.9,0,0,1,2.09-1.17A4.8,4.8,0,0,1,90.4,60.66Z"/><path class="cls-9" d="M88.46,69.06a5.59,5.59,0,0,1-.45,1,2.64,2.64,0,0,1-.61.09c-.35,0-.77.06-1.26.11s-1,.11-1.6.19a12.75,12.75,0,0,0-1.63.31,5.78,5.78,0,0,0-1.32.49,1.34,1.34,0,0,0-.71.7,2.4,2.4,0,0,0-.12.4,3.07,3.07,0,0,0,0,.5A10.31,10.31,0,0,0,80.84,74c.07.54.16,1.14.26,1.82s.22,1.4.35,2.16.24,1.49.35,2.21.19,1.39.26,2a14,14,0,0,1,.11,1.53c0,.24,0,.51,0,.79s0,.53,0,.76a3.7,3.7,0,0,1-.09.59c0,.15-.1.23-.17.23s-.13-.18-.2-.52-.14-.75-.21-1.21-.14-.91-.2-1.36-.11-.79-.15-1c-.16-.75-.3-1.5-.44-2.26s-.26-1.48-.37-2.19-.18-1.37-.24-2a14.51,14.51,0,0,1-.1-1.65A9.88,9.88,0,0,1,80.1,72a8.65,8.65,0,0,1,.38-1.45,4.13,4.13,0,0,1,.5-1A2.89,2.89,0,0,1,81.5,69"/><path class="cls-2" d="M119.29,66.76a2.14,2.14,0,0,0,.49-.09l.77-.21.86-.24q.45-.12.78-.18a2,2,0,0,1-.32-.68q-.11-.36-.21-.9c-.07-.32-.14-.69-.21-1.12a10.87,10.87,0,0,1-.14-1.17c-.14-1.54-.27-3-.4-4.5s-.25-2.94-.37-4.44c-.06-.6-.1-1.12-.13-1.58s-.2-3.8-.1-4.07a3.16,3.16,0,0,1,.39-.78l.06-.06s0,0,.06.11c.06.27.68,4,.61,4l.06.77c.16,1.84.31,3.62.46,5.35s.33,3.4.52,5c0,.19.07.42.13.67s.12.49.19.73.17.48.26.69a2.56,2.56,0,0,0,.31.53,3.85,3.85,0,0,0,.37.4,3.31,3.31,0,0,0,.3.25,2.38,2.38,0,0,0,.3.18l.35.19.62.26.59.26.5.23a1.63,1.63,0,0,1,.3.17,1.69,1.69,0,0,1,.54.56,1.41,1.41,0,0,1,.19.78,2.84,2.84,0,0,1-.1.6q-.1.38-.24.72a5.12,5.12,0,0,1-.28.61c-.1.18-.18.26-.23.26a1.84,1.84,0,0,1-.8-.26,9.07,9.07,0,0,1-1-.63c-.33-.24-.64-.5-.93-.75a4.72,4.72,0,0,1-.61-.65,5.28,5.28,0,0,0-1,.26l-1.3.44q-.66.24-1.29.42a3.48,3.48,0,0,1-1,.19,1.21,1.21,0,0,1-.77-.19.64.64,0,0,1-.23-.49,1.23,1.23,0,0,1,.16-.56,2.36,2.36,0,0,1,.4-.54,2.18,2.18,0,0,1,.54-.42A1.28,1.28,0,0,1,119.29,66.76Z"/><path class="cls-17" d="M91.26,55.71l.22.94s-1.14,1.74-1.63,1.9-1.35-2.09-1.35-2.09A9.8,9.8,0,0,0,91.26,55.71Z"/><path class="cls-18" d="M122.19,66s.84,1.54,1,1.78a16.87,16.87,0,0,0-2.61.79l-2.41-.68,1.15-1.15Z"/><path class="cls-19" d="M117.73,69.24h-1.1a3.82,3.82,0,0,1-.83,1.87c-.54.62.08,2.87.08,2.87A10,10,0,0,0,117.73,69.24Z"/><path class="cls-20" d="M117.73,66.87l-1.85,0a3.39,3.39,0,0,0-.78-1.36l2-1a6.36,6.36,0,0,1,.62,2.24"/><path class="cls-21" d="M108.58,57l-1.41,2.35a6.36,6.36,0,0,0,2.38,1.79c1.23.4,1.27-2.31,1.27-2.31A4.71,4.71,0,0,1,108.58,57Z"/><path class="cls-22" d="M99.35,61.64a16.78,16.78,0,0,1-1,2.28,7.48,7.48,0,0,0,1.62.79c.72.2,1.48-2.06,1.48-2.06A4.34,4.34,0,0,1,99.35,61.64Z"/><polygon class="cls-23" points="109.56 66.95 111.47 68.07 109.98 69.87 109.56 66.95"/><polygon class="cls-24" points="109.26 63.5 111.17 64.62 109.69 66.42 109.26 63.5"/><polygon class="cls-25" points="113.69 47.84 115.68 48.82 114.32 50.72 113.69 47.84"/><polygon class="cls-26" points="113.12 44.43 115.11 45.4 113.76 47.3 113.12 44.43"/><polygon class="cls-27" points="98.95 47.91 100.94 48.88 99.59 50.79 98.95 47.91"/><polygon class="cls-28" points="87.4 45.3 89.39 46.27 88.04 48.18 87.4 45.3"/><polygon class="cls-29" points="88.03 48.71 90.02 49.68 88.67 51.59 88.03 48.71"/><path class="cls-30" d="M103.88,59.43a10,10,0,0,1,.28,2.28,3,3,0,0,0,1.62-1.07l.85-1.86-1.89.5A1.58,1.58,0,0,1,103.88,59.43Z"/><path class="cls-31" d="M127.93,59a4.76,4.76,0,0,0,1.3-.27l-.46-3.05h-1.35Z"/><path class="cls-32" d="M129.57,60.86a4,4,0,0,1-1.25.5l.5,2.64,1.24.52Z"/><path class="cls-9" d="M127.23,67.14a1.69,1.69,0,0,0-.54-.56,1.63,1.63,0,0,0-.3-.17l-.5-.23-.59-.26-.62-.26-.35-.19a2.38,2.38,0,0,1-.3-.18,3.31,3.31,0,0,1-.3-.25,3.85,3.85,0,0,1-.37-.4,2.56,2.56,0,0,1-.31-.53c-.09-.21-.18-.44-.26-.69s-.14-.48-.19-.73-.1-.48-.13-.67c-.19-1.6-.37-3.26-.52-5s-.3-3.51-.46-5.35l-.06-.77s-.2-1.57-.39-2.76a15.57,15.57,0,0,0,3,2.6c3.33,2.33,1.39,5.3,1.39,5.3,1.83-1.28,2-4.51-1.1-6.42a9.68,9.68,0,0,1-4-5.12l-.65.06.73,6.76c0,.15,0,.27,0,.33,0,.46.07,1,.13,1.58.12,1.5.25,3,.37,4.44s.26,3,.4,4.5a10.87,10.87,0,0,0,.14,1.17c.07.43.14.8.21,1.12s.14.66.21.9a10.3,10.3,0,0,0,2,3.11c.31.23.6.51.93.75a9.07,9.07,0,0,0,1,.63,1.84,1.84,0,0,0,.8.26c.05,0,.13-.08.23-.26a5.12,5.12,0,0,0,.28-.61q.14-.34.24-.72a2.84,2.84,0,0,0,.1-.6A1.41,1.41,0,0,0,127.23,67.14Z"/><polygon class="cls-33" points="119.99 47.57 121.04 48.14 121.34 50.06 120.28 50.33 119.99 47.57"/><path class="cls-2" d="M80.28,77.61l-.06-.47c-.08-.53-.14-1-.18-1.52a14.51,14.51,0,0,1-.1-1.65,9.88,9.88,0,0,1,.16-1.91,8.65,8.65,0,0,1,.38-1.45,4.13,4.13,0,0,1,.5-1,2.89,2.89,0,0,1,1.38-1.05q.49-.16.93-.27l1-.21a3.43,3.43,0,0,0-.57-.21l-.49-.11a4.12,4.12,0,0,0-.42,0l-.45,0-.24,0-.19,0-.28,0q-.15,0-.15-.3a2.43,2.43,0,0,1,.44-1.2A7.6,7.6,0,0,1,83.08,65l1.39.43a7.74,7.74,0,0,1,1.39.52c.5.24,1,.48,1.38.73a10.59,10.59,0,0,1,1.5,1.07,2.73,2.73,0,0,1-.09.59c-.05.26-.12.52-.19.78a5.59,5.59,0,0,1-.45,1,2.64,2.64,0,0,1-.61.09c-.35,0-.77.06-1.26.11s-1,.11-1.6.19a12.75,12.75,0,0,0-1.63.31,5.78,5.78,0,0,0-1.32.49,1.34,1.34,0,0,0-.71.7,2.4,2.4,0,0,0-.12.4,3.07,3.07,0,0,0,0,.5,10.31,10.31,0,0,0,.11,1.19c.07.54.16,1.14.26,1.82,0,0,.27,1.39,0,1.41a8.43,8.43,0,0,1-.32-1.86,1.9,1.9,0,0,0-.15.89c.06.41.27,3.21.24,3.3s-.32-3.54-.59-3.48c0,0,.26,2.53.23,2.41Z"/><path class="cls-34" d="M84.33,68.08l3.68,2a27.78,27.78,0,0,0-5.1.7c-1.32.48-1.78-1.35-1.78-1.35S81.44,68.58,84.33,68.08Z"/><path class="cls-9" d="M69.94,174.72a1.82,1.82,0,0,1-1.34-.39,4.43,4.43,0,0,1-.74-1.81l-.55.56a1.15,1.15,0,0,1-.46.34h-.3l-.64-.08-.34-.09c-.63-.13-.95-.31-.95-.53a2.37,2.37,0,0,1,.71-1.46,5,5,0,0,1,2.08-1.4l-.12-.61a.52.52,0,0,1,.08-.25l.13-.18.22-.25.23-.17.27,1.2.24,2.13a2.33,2.33,0,0,0,.52,1.41,1.47,1.47,0,0,0,1,.25h.2v1.32ZM68.28,167l-1.1-.74-.62,1-1.27-.88.74-1.06,1.11.75.67-.94,1.26.8Zm-.51,4.9v-.16l-.29-1.48-.36.57-.44.21-.39.23q-.51.3-.51.51c0,.09.21.17.62.24l.66.07h.73Z"/><path class="cls-9" d="M73.72,173.4v1.32H69.85V173.4Z"/><path class="cls-9" d="M77.27,173.4v1.32H73.4V173.4Z"/><path class="cls-9" d="M77.12,173.4a2.93,2.93,0,0,0,1.66-.4l.89-.94a2.29,2.29,0,0,1,.34.67,1.12,1.12,0,0,0,1.18.67h.18v1.32H81a1.33,1.33,0,0,1-.63-.15l-.27-.18-.14-.11-.2-.2-.21-.3a.71.71,0,0,0-.2-.29,7.83,7.83,0,0,1-1,.85l-.18.12-.34.15-.28.08-.29,0H77V173.4Zm3.15,4.91-1.09-.74-.62,1-1.28-.89L78,176.6l1.11.75.67-.93,1.26.8Z"/><path class="cls-9" d="M85.05,173.4v1.32H81.18V173.4Z"/><path class="cls-9" d="M88.6,173.4v1.32H84.73V173.4Z"/><path class="cls-9" d="M89.67,173.4l.13,0,.2-.06.29-.06.29-.08a.32.32,0,0,0,.16-.18,1.66,1.66,0,0,0-.26-.79,2.62,2.62,0,0,0-.48-.54s0-.12,0-.2,0-.17.09-.28.09-.25.15-.41.14-.34.24-.56a3,3,0,0,1,.73,1,2.07,2.07,0,0,1,.22.87,2.34,2.34,0,0,1-.06.56l-.14.51a2,2,0,0,1-.86,1.12,2.77,2.77,0,0,1-1.58.47h-.51V173.4Zm.8-5.42-1.32-.85.91-1.17,1.22.88Z"/><path class="cls-9" d="M98.63,172.59a5.45,5.45,0,0,1-.28,1.73,6.91,6.91,0,0,1-.85,1.73q-1.35,2-2.94,2a4.74,4.74,0,0,1-2-.62c-.84-.42-1.26-.7-1.26-.85s0-.08.13-.13l1.21.45.54.17a2.09,2.09,0,0,0,.42,0,3.73,3.73,0,0,0,2-.63A8.08,8.08,0,0,0,98,174l.05-.27a1.11,1.11,0,0,0,0-.17.89.89,0,0,0-.06-.2l-.13-.3a2.16,2.16,0,0,1-.58.66,1.15,1.15,0,0,1-.61.21,1.11,1.11,0,0,1-.82-.41,1.43,1.43,0,0,1-.32-.94,3.31,3.31,0,0,1,.6-1.75c.42-.64.75-1,1-1s.54.24.91.72A3.5,3.5,0,0,1,98.63,172.59Zm-.87-.17a1.6,1.6,0,0,0-.33-.8.82.82,0,0,0-.57-.35.58.58,0,0,0-.4.25,2.1,2.1,0,0,0-.25.57c0,.15.12.29.34.42a1.42,1.42,0,0,0,.63.17A.8.8,0,0,0,97.76,172.42Z"/><path class="cls-9" d="M105,174.72a7.45,7.45,0,0,1-.67,1.85c0,.1-.1.21-.16.33l-.23.41-.18.29c-.08.1-.17.22-.28.34a3.15,3.15,0,0,1-2.64,1.39,4.41,4.41,0,0,1-1.79-.7q-1-.58-1-.93s0,0,0-.06a.31.31,0,0,1,.1-.08,1,1,0,0,1,.4.17,6.58,6.58,0,0,0,1.23.7,4.31,4.31,0,0,0,1.43-.3,5,5,0,0,0,1.32-.73l.57-.53.48-.51a2.67,2.67,0,0,0,.46-.64l.16-.49a1.37,1.37,0,0,0-.37-1l-.74-.78.55-1.24,1.06,1.06a1.12,1.12,0,0,0,.59.14h.41v1.32Z"/><path class="cls-9" d="M109.28,173.4v1.32h-3.87V173.4Z"/><path class="cls-9" d="M112.83,173.4v1.32H109V173.4Z"/><path class="cls-9" d="M112.68,173.4a3.33,3.33,0,0,0,1.66-.35l.89-.82.32.6c.17.38.57.57,1.18.57h.18v1.32h-.34a1.64,1.64,0,0,1-.74-.17l-.45-.36-.3-.36a.42.42,0,0,0-.2-.17l-.46.38-.43.28-.31.18-.26.11-.3.09-.3,0h-.27V173.4Zm3.15-3.48-1.1-.74-.28.49-.18.28-.09.14-.06.07-1.28-.89.74-1.06.43.32.31.22.22.13.18.11.64-1,1.26.8Z"/><path class="cls-9" d="M120.5,173.4v1.32h-3.87V173.4Z"/><path class="cls-9" d="M124.05,173.4v1.32h-3.87V173.4Z"/><path class="cls-9" d="M127.41,166.33l-1.26.49c-.38.15-.73.29-1.05.44v.14c.78.82,1.45,1.54,2,2.17s1,1.16,1.37,1.63l1.16,1.5a2.83,2.83,0,0,0,.3.35,1.1,1.1,0,0,0,.31.22,1.6,1.6,0,0,0,.39.11,4.22,4.22,0,0,0,.55,0h.16v1.33h-.41a6,6,0,0,1-.65,0,1.71,1.71,0,0,1-.47-.13,1.55,1.55,0,0,1-.4-.3,4,4,0,0,1-.43-.5c-.17-.21-.36-.47-.58-.78s-.49-.67-.81-1.1a3.91,3.91,0,0,1-1.28,2.16,4,4,0,0,1-2.5.68v-1.33a5.19,5.19,0,0,0,1.12-.12,3.57,3.57,0,0,0,1-.38,2.17,2.17,0,0,0,.68-.63,1.52,1.52,0,0,0,.26-.88.89.89,0,0,0-.18-.59l-1.4-1.54s-.07-.08-.17-.17a3.62,3.62,0,0,1-.29-.34,2.23,2.23,0,0,1-.29-.44.92.92,0,0,1-.13-.46,2.54,2.54,0,0,1,.86-1.8c.4-.2,1.14-.51,2.21-.92s2.52-.93,4.37-1.54a0,0,0,0,1,0,0,5.48,5.48,0,0,1-.71,1.24Z"/><path class="cls-9" d="M134.93,173.4v1.32h-3.88V173.4Z"/><path class="cls-9" d="M135.88,173.4a2,2,0,0,0,1.07-.27,1,1,0,0,0,.42-.88,27.54,27.54,0,0,0-.46-3.26,20.28,20.28,0,0,0-.75-3.34l.9-1.14.34.8a1.27,1.27,0,0,0,.73.6l-.75,1.25.07.78.36,1.93L138,171a8.74,8.74,0,0,1,.06.91,4.37,4.37,0,0,1-.21,1.12,3.12,3.12,0,0,1-.48,1.05,1.13,1.13,0,0,1-.44.31,2.69,2.69,0,0,1-.79.22l-.64.11h-.88V173.4Z"/><path class="cls-9" d="M147.64,166.2l-.12,1.56c0,.3,0,.55,0,.75s0,.38-.06.51-.05.39-.08.56a3.19,3.19,0,0,1-.12.49,3.66,3.66,0,0,1-.56,1.33l-.29.43-.14.19-.18.19.21.68.09.92a4.54,4.54,0,0,1-.06.77c0,.21-.09.34-.2.39a3.53,3.53,0,0,1-.71.18,15.11,15.11,0,0,1-1.57.18l-1.88.15.32-1.38.19,0,.24-.06a2.44,2.44,0,0,0,.44-.14,1.57,1.57,0,0,0,.41-.21,4.92,4.92,0,0,0,1.65-1.48l-.06-.16a.22.22,0,0,0,0-.1,1.43,1.43,0,0,0-.14-.25,1.4,1.4,0,0,0-.14-.23,3,3,0,0,0-.3-.47c-.12-.17-.27-.35-.44-.55l-.53-.6-.29-.28-.33-.3c-.21-.19-.43-.37-.64-.53a6,6,0,0,0-.64-.43l-.36.41a1.31,1.31,0,0,1-.42-.14,5,5,0,0,1-.68-.51c-.32-.27-.48-.51-.48-.7v-.58a1.81,1.81,0,0,1,.05-.36,3.56,3.56,0,0,1,.13-.39,1.5,1.5,0,0,1,.19-.31.31.31,0,0,1,.22-.13,4.78,4.78,0,0,1,.87.53c.43.34.92.75,1.46,1.23.23.2.45.4.64.6s.39.41.57.61l.44.57q.26.33.57.81a5.8,5.8,0,0,1,.86,1.69l.28-.48a2,2,0,0,1,.26-.43l.29-.85a4.48,4.48,0,0,0,.12-.83c0-.72,0-1.31,0-1.78a7.61,7.61,0,0,0-.08-1l-.26-1.58.8-1a1.49,1.49,0,0,0,0,.21,1.27,1.27,0,0,0,.12.34,2.17,2.17,0,0,0,.34.6l.39.39.26.18Zm-4.93,12.53h-.39l-.44.11a6.51,6.51,0,0,0-.88.34,2.39,2.39,0,0,0-.34.21,2.52,2.52,0,0,0-.3.27.26.26,0,0,1-.14.1v-.26a1,1,0,0,1,.74-.78,1.54,1.54,0,0,1-.65-.2.5.5,0,0,1-.3-.44,1.75,1.75,0,0,1,.43-1,1.43,1.43,0,0,1,1.18-.65l.26,0,.09.05a.49.49,0,0,1,.29.45l-.31.5c0-.08-.12-.16-.29-.25l-.19-.08-.17,0a1.09,1.09,0,0,0-.47.12.45.45,0,0,0-.27.25c0,.17.13.32.39.46l.36.15a.8.8,0,0,0,.3.06h.45l.14,0,.33,0,.63-.07Zm2.91-5.38a1.1,1.1,0,0,0,0-.18.44.44,0,0,0-.07-.24l-.61.61-.52.38-.18.09-.39.16.74-.07a3.14,3.14,0,0,0,1.05-.2Z"/><path class="cls-9" d="M151.32,173.84l-.06.23c-.11.51-.24.77-.41.79s-.14-.3-.14-.89v-.53a1.43,1.43,0,0,0,0-.49c-.08-.75-.15-1.46-.24-2.13s-.16-1.32-.26-1.94l-.33-2.26.15-.4.81-1.27V166l.48,4.5c.05.6.09,1.09.12,1.48s0,.66,0,.86Z"/><path class="cls-35" d="M200.34,158s3.68-5.15,3.32-11.21-4.6-10.75-4.6-10.75-3.68,5.14-3.33,11.21S200.34,158,200.34,158Z"/><path class="cls-35" d="M216.43,140.75s-6,1.88-9.42,6.93S204.19,159,204.19,159s6-1.88,9.42-6.92S216.43,140.75,216.43,140.75Z"/><path class="cls-35" d="M192.34,181.57s4.4-4.55,4.95-10.6-3-11.31-3-11.31-4.4,4.55-5,10.59S192.34,181.57,192.34,181.57Z"/><path class="cls-35" d="M200.47,172.37c-4.09,4.49-4.48,10.8-4.48,10.8s6.26-1,10.35-5.45,4.47-10.8,4.47-10.8S204.56,167.88,200.47,172.37Z"/><path class="cls-35" d="M184.49,180.71s-5.6,2.95-8,8.53-.71,11.67-.71,11.67,5.6-2.95,8-8.53S184.49,180.71,184.49,180.71Z"/><path class="cls-35" d="M186.36,194.7c-5.28,3-7.61,8.87-7.61,8.87s6.24,1,11.53-2,7.61-8.87,7.61-8.87S191.65,191.71,186.36,194.7Z"/><path class="cls-35" d="M162.48,210.47c3.71-4.81,3.58-11.13,3.58-11.13s-6.15,1.47-9.87,6.27-3.58,11.13-3.58,11.13S158.77,215.27,162.48,210.47Z"/><path class="cls-35" d="M164.41,213.35c-5.87,1.59-9.58,6.71-9.58,6.71s5.79,2.55,11.65,1,9.58-6.71,9.58-6.71S170.27,211.76,164.41,213.35Z"/><path class="cls-35" d="M144.19,210.65s-6.28-.75-11.43,2.47-7.22,9.2-7.22,9.2,6.28.75,11.43-2.47S144.19,210.65,144.19,210.65Z"/><path class="cls-35" d="M137.78,223.23c-6.05-.55-11.31,3-11.31,3s4.55,4.39,10.6,4.94,11.31-3,11.31-3S143.83,223.77,137.78,223.23Z"/><path class="cls-35" d="M213.35,128.44c1.13-6-1.85-11.54-1.85-11.54s-4.82,4.1-5.95,10.07,1.86,11.54,1.86,11.54S212.22,134.41,213.35,128.44Z"/><path class="cls-35" d="M16.13,158s-3.68-5.15-3.33-11.21S17.41,136,17.41,136s3.67,5.14,3.32,11.21S16.13,158,16.13,158Z"/><path class="cls-35" d="M0,140.75s6,1.88,9.42,6.93S12.27,159,12.27,159s-6-1.88-9.41-6.92S0,140.75,0,140.75Z"/><path class="cls-35" d="M24.12,181.57S19.72,177,19.17,171s3-11.31,3-11.31,4.4,4.55,4.95,10.59S24.12,181.57,24.12,181.57Z"/><path class="cls-35" d="M16,172.37c4.09,4.49,4.47,10.8,4.47,10.8s-6.25-1-10.34-5.45-4.47-10.8-4.47-10.8S11.91,167.88,16,172.37Z"/><path class="cls-35" d="M32,180.71s5.6,2.95,8,8.53.72,11.67.72,11.67-5.6-2.95-8-8.53S32,180.71,32,180.71Z"/><path class="cls-35" d="M30.1,194.7c5.29,3,7.61,8.87,7.61,8.87s-6.24,1-11.52-2-7.62-8.87-7.62-8.87S24.81,191.71,30.1,194.7Z"/><path class="cls-35" d="M54,210.47c-3.71-4.81-3.58-11.13-3.58-11.13s6.16,1.47,9.87,6.27,3.58,11.13,3.58,11.13S57.7,215.27,54,210.47Z"/><path class="cls-35" d="M52.06,213.35c5.86,1.59,9.57,6.71,9.57,6.71s-5.79,2.55-11.65,1-9.58-6.71-9.58-6.71S46.2,211.76,52.06,213.35Z"/><path class="cls-35" d="M72.27,210.65s6.28-.75,11.43,2.47,7.22,9.2,7.22,9.2-6.28.75-11.43-2.47S72.27,210.65,72.27,210.65Z"/><path class="cls-35" d="M78.68,223.23c6-.55,11.31,3,11.31,3s-4.54,4.39-10.59,4.94-11.31-3-11.31-3S72.64,223.77,78.68,223.23Z"/><path class="cls-35" d="M3.11,128.44C2,122.47,5,116.9,5,116.9S9.79,121,10.91,127s-1.85,11.54-1.85,11.54S4.24,134.41,3.11,128.44Z"/><path class="cls-35" d="M119.59,228.17l-1.83-.27-1.69-.24-1.55-.22-1.49-.22a.1.1,0,0,1-.09-.06c-1-2-2-4-3-6l0-.05,0,.05-3,6a.11.11,0,0,1-.09.07l-1.6.23-1.73.26-1.6.23-1.54.23-.26,0v0l0,0,2.12,2.06L105,233a.08.08,0,0,1,0,.08c-.08.45-.15.9-.23,1.36l-.27,1.59c-.1.56-.19,1.12-.29,1.67s-.19,1.11-.28,1.66c0,.15,0,.29-.08.44l.07,0,5.95-3.14a.13.13,0,0,1,.12,0l6,3.13,0,0v0c-.07-.43-.15-.86-.22-1.3s-.2-1.17-.31-1.75l-.3-1.76c-.11-.62-.21-1.24-.32-1.87a.11.11,0,0,1,0-.12l4.82-4.7s0,0,0,0v0Z"/></g></g></svg>